<?xml version="1.0" standalone="no"?>
<!DOCTYPE svg PUBLIC "-//W3C//DTD SVG 20010904//EN"
 "http://www.w3.org/TR/2001/REC-SVG-20010904/DTD/svg10.dtd">
<svg version="1.0" xmlns="http://www.w3.org/2000/svg"
 width="256.000000pt" height="256.000000pt" viewBox="0 0 256.000000 256.000000"
 preserveAspectRatio="xMidYMid meet">

<g transform="translate(0.000000,256.000000) scale(0.100000,-0.100000)"
fill="#000000" stroke="none">
<path d="M0 1280 l0 -1280 1280 0 1280 0 0 1280 0 1280 -1280 0 -1280 0 0
-1280z m2150 868 c0 -76 -15 -108 -52 -108 -11 0 -18 -7 -18 -20 0 -13 -7 -20
-20 -20 -13 0 -20 -7 -20 -20 0 -13 -7 -20 -20 -20 -13 0 -20 -7 -20 -20 0
-13 -7 -20 -20 -20 -11 0 -20 -7 -20 -15 0 -13 -42 -15 -322 -15 l-323 0 -92
92 -93 93 0 72 0 73 510 0 510 0 0 -72z m-22 -1245 c-12 -13 -27 -23 -35 -23
-7 0 -13 -6 -13 -13 0 -7 -19 -32 -43 -55 l-43 -42 -292 0 -292 0 -2 373 -3
372 -137 3 -138 3 0 199 c0 110 3 200 7 200 3 0 39 -31 79 -70 l72 -70 88 0
89 0 -3 -95 c-2 -53 -1 -107 2 -121 l7 -24 167 2 167 3 3 118 3 117 89 0 c49
0 92 5 95 10 3 6 15 10 26 10 12 0 19 7 19 20 0 13 7 20 20 20 13 0 20 7 20
20 0 13 7 20 20 20 13 0 20 7 20 19 0 11 6 21 13 24 9 3 13 -102 15 -496 l2
-501 -22 -23z m-1488 867 c4 0 34 32 66 71 l59 70 7 -48 c3 -26 7 -70 7 -97
l1 -49 38 7 c20 4 63 13 95 20 31 8 57 11 57 7 0 -3 -21 -40 -46 -80 -25 -40
-42 -77 -37 -81 4 -5 37 -20 73 -35 95 -39 95 -45 -2 -45 -65 0 -98 5 -134 21
-27 11 -50 22 -52 24 -2 2 8 22 22 44 29 46 23 50 -41 32 l-33 -9 -6 49 -7 50
-36 -35 -36 -36 -29 37 c-27 33 -30 34 -37 17 -4 -10 -8 -33 -8 -51 -1 -31 -2
-31 -33 -22 -66 19 -72 14 -43 -35 l25 -43 -58 -22 c-46 -17 -75 -21 -142 -19
l-85 3 80 33 c44 19 83 37 87 41 4 4 -14 42 -41 86 -28 44 -49 80 -48 82 1 1
42 -8 91 -19 102 -23 106 -21 106 52 0 25 3 62 6 82 l6 36 60 -69 c33 -38 63
-69 68 -69z m1040 0 c0 -5 7 -10 15 -10 13 0 15 -11 13 -57 l-3 -58 -67 -3
-68 -3 0 71 0 70 55 0 c30 0 55 -4 55 -10z m-770 -400 l0 -50 -160 0 -160 0 0
50 0 50 160 0 160 0 0 -50z m400 0 l0 -50 -160 0 -160 0 0 50 0 50 160 0 160
0 0 -50z m-400 -430 l0 -220 -160 0 -160 0 0 220 0 220 160 0 160 0 0 -220z
m400 0 l0 -220 -160 0 -160 0 0 220 0 220 160 0 160 0 0 -220z m-402 -422 l3
-48 -160 0 -161 0 0 50 0 51 158 -3 157 -3 3 -47z m402 2 l0 -50 -160 0 -160
0 0 43 c0 24 3 47 7 50 3 4 75 7 160 7 l153 0 0 -50z"/>
</g>
</svg>
